<svg xmlns="http://www.w3.org/2000/svg" width="30.5" height="25.638" viewBox="0 0 30.5 25.638"><g transform="translate(1 -39.724)"><g transform="translate(-1 39.724)"><path d="M28.905,50.421v-.057a5.7,5.7,0,0,0-1.772-2.884c-.1-.871-.239-1.791-.435-2.832-.453-2.32-1.868-3.792-3.679-3.792H22.51a3.173,3.173,0,0,0-2.773,1.811A4.1,4.1,0,0,0,16,39.724h-.057a4.086,4.086,0,0,0-3.735,3,3.475,3.475,0,0,0-2.943-1.868H9.153a4.085,4.085,0,0,0-3.792,3.113,2.731,2.731,0,0,0-2.377-1.415c-1.075,0-2.547.566-3.4,3.452a23.6,23.6,0,0,0-.226,9.338l.226,1.132a3.164,3.164,0,0,0,3.4,2.49,3.669,3.669,0,0,0,2.66-1.075A3.813,3.813,0,0,0,9.21,60.1h.113a3.914,3.914,0,0,0,3-1.3,3.817,3.817,0,0,0,1.036,1.454l-.017.017c-.113.057-.17.113-.17.226a3.974,3.974,0,0,0,.057,2.434,3.732,3.732,0,0,0,3.509,2.434c.4,0,.792-.057,1.075-.057,0,0,7.244-2.037,7.3-2.037,2.66-.792,3.339-2.943,3.792-4.358A15.456,15.456,0,0,0,28.905,50.421ZM13.172,57.438V51.609a.566.566,0,1,0-1.132,0v4.754a2.639,2.639,0,0,1-2.773,2.6H9.153a2.639,2.639,0,0,1-2.773-2.6V51.609a.535.535,0,0,0-.566-.566.535.535,0,0,0-.566.566v4.131a2.133,2.133,0,0,1-2.264,2.094c-1.358,0-1.924-.4-2.264-1.641L.494,55.118a22.08,22.08,0,0,1,.226-8.829c.509-1.7,1.245-2.6,2.264-2.6.679,0,1.245.453,1.754,1.415a.625.625,0,0,0,.566.283h.566a.609.609,0,0,0,.566-.566,2.947,2.947,0,0,1,2.773-2.83h.113a2.682,2.682,0,0,1,2.264,1.924.5.5,0,0,0,.509.34h.566a.609.609,0,0,0,.566-.566A2.947,2.947,0,0,1,16,40.856h.057a2.947,2.947,0,0,1,2.773,2.83.567.567,0,0,0,.566.566h.566a.681.681,0,0,0,.566-.4q.679-1.868,2.037-1.868h.509c1.471,0,2.32,1.528,2.49,2.886.23,1.262.388,2.344.477,3.38a33.617,33.617,0,0,1-.251,6.581l-.226,1.641c-.226.906-.849,2.49-2.6,2.49h-.509a2.432,2.432,0,0,1-2.547-2.377V51.043a.566.566,0,0,0-1.132,0v6.4A2.65,2.65,0,0,1,16,60.1h-.057l-.105,0a3.357,3.357,0,0,1-1.254-.34A2.643,2.643,0,0,1,13.172,57.438Zm14.715,1.075c-.509,1.585-1.132,3-3,3.566l-7.3,2.037A2.638,2.638,0,0,1,14.3,62.532a3,3,0,0,1-.057-1.585l.141-.047A4.059,4.059,0,0,0,16,61.23h.113A3.865,3.865,0,0,0,19.7,58.936a3.523,3.523,0,0,0,2.808,1.219h.509a3.371,3.371,0,0,0,2.5-1.027,4.77,4.77,0,0,0,1.236-2.482l.226-1.7a32.955,32.955,0,0,0,.34-5.66c.17.4.4.849.566,1.358A14.293,14.293,0,0,1,27.887,58.514Z" transform="translate(1 -39.724)" fill="#f4f4f4"/></g></g></svg>